<?xml version="1.0" encoding="utf-8"?>
<!-- Generator: Adobe Illustrator 25.0.0, SVG Export Plug-In . SVG Version: 6.00 Build 0)  -->
<svg version="1.1" id="Layer_1" xmlns="http://www.w3.org/2000/svg" xmlns:xlink="http://www.w3.org/1999/xlink" x="0px" y="0px"
	 viewBox="0 0 1280 1280" style="enable-background:new 0 0 1280 1280;" xml:space="preserve">
<style type="text/css">
	.st0{fill:#F15A24;}
</style>
<g>
	<g>
		<path class="st0" d="M499,313.2l-2.5-2.5c-1.3-1.3-3.5-1.4-4.8,0c-0.5,0.6-0.9,1.3-0.9,2l-0.6,0.1c-0.4,0.1-0.7,0.5-0.7,0.9
			c0,0.5,0.4,0.9,0.9,0.9h0.7c0.2,0.4,0.5,0.7,0.8,1c1.1,0.9,2.8,1,4,0.2c0.4-0.3,0.8-0.6,1-1l0.5,0.5c0.3,0.3,0.6,0.4,1,0.5l15.8,2
			c0.1-0.4,0.2-0.8,0.1-1.2c-0.2-1.2-1.2-2-2.3-2.1l-7.5-0.6l-0.5-3.8c0-0.4-0.2-0.7-0.5-1l-0.5-0.5c0.4-0.2,0.7-0.6,1-1
			c0.8-1.2,0.7-2.8-0.2-4c-1.3-1.5-3.6-1.6-4.9-0.3c-1.3,1.3-1.3,3.5,0,4.8l2.5,2.5c0.1,0.1,0.2,0.3,0.2,0.5l0.2,2.5l-2.5-0.2
			C499.3,313.4,499.1,313.3,499,313.2z M493,314c-0.6-0.6-0.6-1.6,0-2.1c0.6-0.6,1.6-0.6,2.1,0c0.6,0.6,0.6,1.6,0,2.1
			C494.5,314.6,493.6,314.6,493,314z M500.3,306.8c-0.6-0.6-0.6-1.6,0-2.1c0.6-0.6,1.6-0.6,2.2,0c0.6,0.6,0.6,1.6,0,2.1
			S500.9,307.4,500.3,306.8z M505,317.8l1.1,8c-0.3,0.1-0.7,0.1-1,0.1c-1.2-0.1-2.2-1.1-2.3-2.3l-0.5-6.2L505,317.8z"/>
	</g>
</g>
<g>
	<g>
		<path class="st0" d="M460,140.6l-2.5-2.5c-1.3-1.3-3.5-1.4-4.8,0c-0.5,0.6-0.9,1.3-0.9,2l-0.6,0.1c-0.4,0.1-0.7,0.5-0.7,0.9
			c0,0.5,0.4,0.9,0.9,0.9h0.7c0.2,0.4,0.5,0.7,0.8,1c1.1,0.9,2.8,1,4,0.2c0.4-0.3,0.8-0.6,1-1l0.5,0.5c0.3,0.3,0.6,0.4,1,0.5l15.8,2
			c0.1-0.4,0.2-0.8,0.1-1.2c-0.2-1.2-1.2-2-2.3-2.1l-7.5-0.6l-0.5-3.8c0-0.4-0.2-0.7-0.5-1l-0.5-0.5c0.4-0.2,0.7-0.6,1-1
			c0.8-1.2,0.7-2.8-0.2-4c-1.3-1.5-3.6-1.6-4.9-0.3c-1.3,1.3-1.3,3.5,0,4.8l2.5,2.5c0.1,0.1,0.2,0.3,0.2,0.5l0.2,2.5l-2.5-0.2
			C460.3,140.8,460.1,140.7,460,140.6z M454,141.5c-0.6-0.6-0.6-1.6,0-2.1c0.6-0.6,1.6-0.6,2.1,0c0.6,0.6,0.6,1.6,0,2.1
			C455.5,142.1,454.6,142.1,454,141.5z M461.3,134.2c-0.6-0.6-0.6-1.6,0-2.1s1.6-0.6,2.2,0c0.6,0.6,0.6,1.6,0,2.1
			S461.9,134.8,461.3,134.2z M466,145.3l1.1,8c-0.3,0.1-0.7,0.1-1,0.1c-1.2-0.1-2.2-1.1-2.3-2.3l-0.5-6.2L466,145.3z"/>
	</g>
</g>
<g>
	<g>
		<path class="st0" d="M1192,82.6l-2.5-2.5c-1.3-1.3-3.5-1.4-4.8,0c-0.5,0.6-0.9,1.3-0.9,2l-0.6,0.1c-0.4,0.1-0.7,0.5-0.7,0.9
			c0,0.5,0.4,0.9,0.9,0.9h0.7c0.2,0.4,0.5,0.7,0.8,1c1.1,0.9,2.8,1,4,0.2c0.4-0.3,0.8-0.6,1-1l0.5,0.5c0.3,0.3,0.6,0.4,1,0.5l15.8,2
			c0.1-0.4,0.2-0.8,0.1-1.2c-0.2-1.2-1.2-2-2.3-2.1l-7.5-0.6l-0.5-3.8c0-0.4-0.2-0.7-0.5-1l-0.5-0.5c0.4-0.2,0.7-0.6,1-1
			c0.8-1.2,0.7-2.8-0.2-4c-1.3-1.5-3.6-1.6-4.9-0.3c-1.3,1.3-1.3,3.5,0,4.8l2.5,2.5c0.1,0.1,0.2,0.3,0.2,0.5l0.2,2.5l-2.5-0.2
			C1192.3,82.8,1192.1,82.7,1192,82.6z M1186,83.5c-0.6-0.6-0.6-1.6,0-2.1c0.6-0.6,1.6-0.6,2.1,0c0.6,0.6,0.6,1.6,0,2.1
			C1187.5,84.1,1186.6,84.1,1186,83.5z M1193.3,76.2c-0.6-0.6-0.6-1.6,0-2.1c0.6-0.6,1.6-0.6,2.2,0s0.6,1.6,0,2.1
			C1194.8,76.8,1193.9,76.8,1193.3,76.2z M1198,87.3l1.1,8c-0.3,0.1-0.7,0.1-1,0.1c-1.2-0.1-2.2-1.1-2.3-2.3l-0.5-6.2L1198,87.3z"/>
	</g>
</g>
<g>
	<g>
		<path class="st0" d="M101,183.6l-2.5-2.5c-1.3-1.3-3.5-1.4-4.8,0c-0.5,0.6-0.9,1.3-0.9,2l-0.6,0.1c-0.4,0.1-0.7,0.5-0.7,0.9
			c0,0.5,0.4,0.9,0.9,0.9h0.7c0.2,0.4,0.5,0.7,0.8,1c1.1,0.9,2.8,1,4,0.2c0.4-0.3,0.8-0.6,1-1l0.5,0.5c0.3,0.3,0.6,0.4,1,0.5l15.8,2
			c0.1-0.4,0.2-0.8,0.1-1.2c-0.2-1.2-1.2-2-2.3-2.1l-7.5-0.6l-0.5-3.8c0-0.4-0.2-0.7-0.5-1l-0.5-0.5c0.4-0.2,0.7-0.6,1-1
			c0.8-1.2,0.7-2.8-0.2-4c-1.3-1.5-3.6-1.6-4.9-0.3c-1.3,1.3-1.3,3.5,0,4.8l2.5,2.5c0.1,0.1,0.2,0.3,0.2,0.5l0.2,2.5l-2.5-0.2
			C101.3,183.8,101.1,183.7,101,183.6z M95,184.5c-0.6-0.6-0.6-1.6,0-2.1c0.6-0.6,1.6-0.6,2.1,0c0.6,0.6,0.6,1.6,0,2.1
			C96.5,185.1,95.6,185.1,95,184.5z M102.3,177.2c-0.6-0.6-0.6-1.6,0-2.1c0.6-0.6,1.6-0.6,2.2,0s0.6,1.6,0,2.1
			S102.9,177.8,102.3,177.2z M107,188.3l1.1,8c-0.3,0.1-0.7,0.1-1,0.1c-1.2-0.1-2.2-1.1-2.3-2.3l-0.5-6.2L107,188.3z"/>
	</g>
</g>
<g>
	<g>
		<path class="st0" d="M576.7,580.2l-2.5-2.5c-1.3-1.3-3.5-1.4-4.8,0c-0.5,0.6-0.9,1.3-0.9,2l-0.6,0.1c-0.4,0.1-0.7,0.5-0.7,0.9
			c0,0.5,0.4,0.9,0.9,0.9h0.7c0.2,0.4,0.5,0.7,0.8,1c1.1,0.9,2.8,1,4,0.2c0.4-0.3,0.8-0.6,1-1l0.5,0.5c0.3,0.3,0.6,0.4,1,0.5l15.8,2
			c0.1-0.4,0.2-0.8,0.1-1.2c-0.2-1.2-1.2-2-2.3-2.1l-7.5-0.6l-0.5-3.8c0-0.4-0.2-0.7-0.5-1l-0.5-0.5c0.4-0.2,0.7-0.6,1-1
			c0.8-1.2,0.7-2.8-0.2-4c-1.3-1.5-3.6-1.6-4.9-0.3c-1.3,1.3-1.3,3.5,0,4.8l2.5,2.5c0.1,0.1,0.2,0.3,0.2,0.5l0.2,2.5l-2.5-0.2
			C576.9,580.4,576.8,580.4,576.7,580.2z M570.6,581.1c-0.6-0.6-0.6-1.6,0-2.1c0.6-0.6,1.6-0.6,2.1,0c0.6,0.6,0.6,1.6,0,2.1
			C572.2,581.7,571.2,581.7,570.6,581.1z M577.9,573.8c-0.6-0.6-0.6-1.6,0-2.1s1.6-0.6,2.2,0s0.6,1.6,0,2.1S578.5,574.4,577.9,573.8
			z M582.7,584.9l1.1,8c-0.3,0.1-0.7,0.1-1,0.1c-1.2-0.1-2.2-1.1-2.3-2.3l-0.5-6.2L582.7,584.9z"/>
	</g>
</g>
<g>
	<g>
		<path class="st0" d="M200.4,524.3l-2.5-2.5c-1.3-1.3-3.5-1.4-4.8,0c-0.5,0.6-0.9,1.3-0.9,2l-0.6,0.1c-0.4,0.1-0.7,0.5-0.7,0.9
			c0,0.5,0.4,0.9,0.9,0.9h0.7c0.2,0.4,0.5,0.7,0.8,1c1.1,0.9,2.8,1,4,0.2c0.4-0.3,0.8-0.6,1-1l0.5,0.5c0.3,0.3,0.6,0.4,1,0.5l15.8,2
			c0.1-0.4,0.2-0.8,0.1-1.2c-0.2-1.2-1.2-2-2.3-2.1l-7.5-0.6l-0.5-3.8c0-0.4-0.2-0.7-0.5-1l-0.5-0.5c0.4-0.2,0.7-0.6,1-1
			c0.8-1.2,0.7-2.8-0.2-4c-1.3-1.5-3.6-1.6-4.9-0.3c-1.3,1.3-1.3,3.5,0,4.8l2.5,2.5c0.1,0.1,0.2,0.3,0.2,0.5l0.2,2.5l-2.5-0.2
			C200.7,524.5,200.5,524.5,200.4,524.3z M194.4,525.2c-0.6-0.6-0.6-1.6,0-2.1c0.6-0.6,1.6-0.6,2.1,0c0.6,0.6,0.6,1.6,0,2.1
			C195.9,525.8,194.9,525.8,194.4,525.2z M201.6,517.9c-0.6-0.6-0.6-1.6,0-2.1c0.6-0.6,1.6-0.6,2.2,0c0.6,0.6,0.6,1.6,0,2.1
			S202.2,518.5,201.6,517.9z M206.4,529l1.1,8c-0.3,0.1-0.7,0.1-1,0.1c-1.2-0.1-2.2-1.1-2.3-2.3l-0.5-6.2L206.4,529z"/>
	</g>
</g>
<g>
	<g>
		<path class="st0" d="M886.8,1093l-2.5-2.5c-1.3-1.3-3.5-1.4-4.8,0c-0.5,0.6-0.9,1.3-0.9,2l-0.6,0.1c-0.4,0.1-0.7,0.5-0.7,0.9
			c0,0.5,0.4,0.9,0.9,0.9h0.7c0.2,0.4,0.5,0.7,0.8,1c1.1,0.9,2.8,1,4,0.2c0.4-0.3,0.8-0.6,1-1l0.5,0.5c0.3,0.3,0.6,0.4,1,0.5l15.8,2
			c0.1-0.4,0.2-0.8,0.1-1.2c-0.2-1.2-1.2-2-2.3-2.1l-7.5-0.6l-0.5-3.8c0-0.4-0.2-0.7-0.5-1l-0.5-0.5c0.4-0.2,0.7-0.6,1-1
			c0.8-1.2,0.7-2.8-0.2-4c-1.3-1.5-3.6-1.6-4.9-0.3c-1.3,1.3-1.3,3.5,0,4.8l2.5,2.5c0.1,0.1,0.2,0.3,0.2,0.5l0.2,2.5l-2.5-0.2
			C887.1,1093.2,886.9,1093.1,886.8,1093z M880.8,1093.9c-0.6-0.6-0.6-1.6,0-2.1c0.6-0.6,1.6-0.6,2.1,0c0.6,0.6,0.6,1.6,0,2.1
			C882.3,1094.5,881.4,1094.5,880.8,1093.9z M888.1,1086.6c-0.6-0.6-0.6-1.6,0-2.1s1.6-0.6,2.2,0c0.6,0.6,0.6,1.6,0,2.1
			C889.6,1087.2,888.7,1087.2,888.1,1086.6z M892.8,1097.7l1.1,8c-0.3,0.1-0.7,0.1-1,0.1c-1.2-0.1-2.2-1.1-2.3-2.3l-0.5-6.2
			L892.8,1097.7z"/>
	</g>
</g>
<g>
	<g>
		<path class="st0" d="M982.8,1261.6l-2.5-2.5c-1.3-1.3-3.5-1.4-4.8,0c-0.5,0.6-0.9,1.3-0.9,2l-0.6,0.1c-0.4,0.1-0.7,0.5-0.7,0.9
			c0,0.5,0.4,0.9,0.9,0.9h0.7c0.2,0.4,0.5,0.7,0.8,1c1.1,0.9,2.8,1,4,0.2c0.4-0.3,0.8-0.6,1-1l0.5,0.5c0.3,0.3,0.6,0.4,1,0.5l15.8,2
			c0.1-0.4,0.2-0.8,0.1-1.2c-0.2-1.2-1.2-2-2.3-2.1l-7.5-0.6l-0.5-3.8c0-0.4-0.2-0.7-0.5-1l-0.5-0.5c0.4-0.2,0.7-0.6,1-1
			c0.8-1.2,0.7-2.8-0.2-4c-1.3-1.5-3.6-1.6-4.9-0.3c-1.3,1.3-1.3,3.5,0,4.8l2.5,2.5c0.1,0.1,0.2,0.3,0.2,0.5l0.2,2.5l-2.5-0.2
			C983.1,1261.8,982.9,1261.7,982.8,1261.6z M976.8,1262.5c-0.6-0.6-0.6-1.6,0-2.1c0.6-0.6,1.6-0.6,2.1,0c0.6,0.6,0.6,1.6,0,2.1
			C978.3,1263.1,977.4,1263.1,976.8,1262.5z M984.1,1255.2c-0.6-0.6-0.6-1.6,0-2.1s1.6-0.6,2.2,0c0.6,0.6,0.6,1.6,0,2.1
			C985.6,1255.8,984.7,1255.8,984.1,1255.2z M988.8,1266.3l1.1,8c-0.3,0.1-0.7,0.1-1,0.1c-1.2-0.1-2.2-1.1-2.3-2.3l-0.5-6.2
			L988.8,1266.3z"/>
	</g>
</g>
<g>
	<g>
		<path class="st0" d="M1108.7,1016.2l-2.5-2.5c-1.3-1.3-3.5-1.4-4.8,0c-0.5,0.6-0.9,1.3-0.9,2l-0.6,0.1c-0.4,0.1-0.7,0.5-0.7,0.9
			c0,0.5,0.4,0.9,0.9,0.9h0.7c0.2,0.4,0.5,0.7,0.8,1c1.1,0.9,2.8,1,4,0.2c0.4-0.3,0.8-0.6,1-1l0.5,0.5c0.3,0.3,0.6,0.4,1,0.5l15.8,2
			c0.1-0.4,0.2-0.8,0.1-1.2c-0.2-1.2-1.2-2-2.3-2.1l-7.5-0.6l-0.5-3.8c0-0.4-0.2-0.7-0.5-1l-0.5-0.5c0.4-0.2,0.7-0.6,1-1
			c0.8-1.2,0.7-2.8-0.2-4c-1.3-1.5-3.6-1.6-4.9-0.3c-1.3,1.3-1.3,3.5,0,4.8l2.5,2.5c0.1,0.1,0.2,0.3,0.2,0.5l0.2,2.5l-2.5-0.2
			C1108.9,1016.4,1108.8,1016.4,1108.7,1016.2z M1102.6,1017.1c-0.6-0.6-0.6-1.6,0-2.1c0.6-0.6,1.6-0.6,2.1,0c0.6,0.6,0.6,1.6,0,2.1
			C1104.2,1017.7,1103.2,1017.7,1102.6,1017.1z M1109.9,1009.8c-0.6-0.6-0.6-1.6,0-2.1s1.6-0.6,2.2,0s0.6,1.6,0,2.1
			S1110.5,1010.4,1109.9,1009.8z M1114.7,1020.9l1.1,8c-0.3,0.1-0.7,0.1-1,0.1c-1.2-0.1-2.2-1.1-2.3-2.3l-0.5-6.2L1114.7,1020.9z"/>
	</g>
</g>
<g>
	<g>
		<path class="st0" d="M812.2,785l-2.5-2.5c-1.3-1.3-3.5-1.4-4.8,0c-0.5,0.6-0.9,1.3-0.9,2l-0.6,0.1c-0.4,0.1-0.7,0.5-0.7,0.9
			c0,0.5,0.4,0.9,0.9,0.9h0.7c0.2,0.4,0.5,0.7,0.8,1c1.1,0.9,2.8,1,4,0.2c0.4-0.3,0.8-0.6,1-1l0.5,0.5c0.3,0.3,0.6,0.4,1,0.5l15.8,2
			c0.1-0.4,0.2-0.8,0.1-1.2c-0.2-1.2-1.2-2-2.3-2.1l-7.5-0.6l-0.5-3.8c0-0.4-0.2-0.7-0.5-1l-0.5-0.5c0.4-0.2,0.7-0.6,1-1
			c0.8-1.2,0.7-2.8-0.2-4c-1.3-1.5-3.6-1.6-4.9-0.3c-1.3,1.3-1.3,3.5,0,4.8l2.5,2.5c0.1,0.1,0.2,0.3,0.2,0.5l0.2,2.5l-2.5-0.2
			C812.4,785.2,812.3,785.1,812.2,785z M806.1,785.9c-0.6-0.6-0.6-1.6,0-2.1c0.6-0.6,1.6-0.6,2.1,0c0.6,0.6,0.6,1.6,0,2.1
			C807.7,786.5,806.7,786.5,806.1,785.9z M813.4,778.6c-0.6-0.6-0.6-1.6,0-2.1s1.6-0.6,2.2,0c0.6,0.6,0.6,1.6,0,2.1
			S814,779.2,813.4,778.6z M818.2,789.7l1.1,8c-0.3,0.1-0.7,0.1-1,0.1c-1.2-0.1-2.2-1.1-2.3-2.3l-0.5-6.2L818.2,789.7z"/>
	</g>
</g>
<g>
	<g>
		<path class="st0" d="M1048,305.2l-2.5-2.5c-1.3-1.3-3.5-1.4-4.8,0c-0.5,0.6-0.9,1.3-0.9,2l-0.6,0.1c-0.4,0.1-0.7,0.5-0.7,0.9
			c0,0.5,0.4,0.9,0.9,0.9h0.7c0.2,0.4,0.5,0.7,0.8,1c1.1,0.9,2.8,1,4,0.2c0.4-0.3,0.8-0.6,1-1l0.5,0.5c0.3,0.3,0.6,0.4,1,0.5l15.8,2
			c0.1-0.4,0.2-0.8,0.1-1.2c-0.2-1.2-1.2-2-2.3-2.1l-7.5-0.6l-0.5-3.8c0-0.4-0.2-0.7-0.5-1l-0.5-0.5c0.4-0.2,0.7-0.6,1-1
			c0.8-1.2,0.7-2.8-0.2-4c-1.3-1.5-3.6-1.6-4.9-0.3c-1.3,1.3-1.3,3.5,0,4.8l2.5,2.5c0.1,0.1,0.2,0.3,0.2,0.5l0.2,2.5l-2.5-0.2
			C1048.3,305.4,1048.1,305.3,1048,305.2z M1042,306c-0.6-0.6-0.6-1.6,0-2.1c0.6-0.6,1.6-0.6,2.1,0c0.6,0.6,0.6,1.6,0,2.1
			C1043.5,306.6,1042.6,306.6,1042,306z M1049.3,298.8c-0.6-0.6-0.6-1.6,0-2.1c0.6-0.6,1.6-0.6,2.2,0c0.6,0.6,0.6,1.6,0,2.1
			S1049.9,299.4,1049.3,298.8z M1054,309.8l1.1,8c-0.3,0.1-0.7,0.1-1,0.1c-1.2-0.1-2.2-1.1-2.3-2.3l-0.5-6.2L1054,309.8z"/>
	</g>
</g>
<g>
	<g>
		<path class="st0" d="M928.6,440.4l-2.5-2.5c-1.3-1.3-3.5-1.4-4.8,0c-0.5,0.6-0.9,1.3-0.9,2l-0.6,0.1c-0.4,0.1-0.7,0.5-0.7,0.9
			c0,0.5,0.4,0.9,0.9,0.9h0.7c0.2,0.4,0.5,0.7,0.8,1c1.1,0.9,2.8,1,4,0.2c0.4-0.3,0.8-0.6,1-1l0.5,0.5c0.3,0.3,0.6,0.4,1,0.5l15.8,2
			c0.1-0.4,0.2-0.8,0.1-1.2c-0.2-1.2-1.2-2-2.3-2.1l-7.5-0.6l-0.5-3.8c0-0.4-0.2-0.7-0.5-1l-0.5-0.5c0.4-0.2,0.7-0.6,1-1
			c0.8-1.2,0.7-2.8-0.2-4c-1.3-1.5-3.6-1.6-4.9-0.3c-1.3,1.3-1.3,3.5,0,4.8l2.5,2.5c0.1,0.1,0.2,0.3,0.2,0.5l0.2,2.5l-2.5-0.2
			C928.8,440.6,928.7,440.5,928.6,440.4z M922.5,441.3c-0.6-0.6-0.6-1.6,0-2.1c0.6-0.6,1.6-0.6,2.1,0c0.6,0.6,0.6,1.6,0,2.1
			C924.1,441.9,923.1,441.9,922.5,441.3z M929.8,434c-0.6-0.6-0.6-1.6,0-2.1s1.6-0.6,2.2,0c0.6,0.6,0.6,1.6,0,2.1
			C931.4,434.6,930.4,434.6,929.8,434z M934.6,445.1l1.1,8c-0.3,0.1-0.7,0.1-1,0.1c-1.2-0.1-2.2-1.1-2.3-2.3l-0.5-6.2L934.6,445.1z"
			/>
	</g>
</g>
<g>
	<g>
		<path class="st0" d="M1125.7,572.2l-2.5-2.5c-1.3-1.3-3.5-1.4-4.8,0c-0.5,0.6-0.9,1.3-0.9,2l-0.6,0.1c-0.4,0.1-0.7,0.5-0.7,0.9
			c0,0.5,0.4,0.9,0.9,0.9h0.7c0.2,0.4,0.5,0.7,0.8,1c1.1,0.9,2.8,1,4,0.2c0.4-0.3,0.8-0.6,1-1l0.5,0.5c0.3,0.3,0.6,0.4,1,0.5l15.8,2
			c0.1-0.4,0.2-0.8,0.1-1.2c-0.2-1.2-1.2-2-2.3-2.1l-7.5-0.6l-0.5-3.8c0-0.4-0.2-0.7-0.5-1l-0.5-0.5c0.4-0.2,0.7-0.6,1-1
			c0.8-1.2,0.7-2.8-0.2-4c-1.3-1.5-3.6-1.6-4.9-0.3c-1.3,1.3-1.3,3.5,0,4.8l2.5,2.5c0.1,0.1,0.2,0.3,0.2,0.5l0.2,2.5l-2.5-0.2
			C1125.9,572.4,1125.8,572.4,1125.7,572.2z M1119.6,573.1c-0.6-0.6-0.6-1.6,0-2.1c0.6-0.6,1.6-0.6,2.1,0c0.6,0.6,0.6,1.6,0,2.1
			C1121.2,573.7,1120.2,573.7,1119.6,573.1z M1126.9,565.8c-0.6-0.6-0.6-1.6,0-2.1s1.6-0.6,2.2,0s0.6,1.6,0,2.1
			S1127.5,566.4,1126.9,565.8z M1131.7,576.9l1.1,8c-0.3,0.1-0.7,0.1-1,0.1c-1.2-0.1-2.2-1.1-2.3-2.3l-0.5-6.2L1131.7,576.9z"/>
	</g>
</g>
<g>
	<g>
		<path class="st0" d="M243.8,1226.6l-2.5-2.5c-1.3-1.3-3.5-1.4-4.8,0c-0.5,0.6-0.9,1.3-0.9,2l-0.6,0.1c-0.4,0.1-0.7,0.5-0.7,0.9
			c0,0.5,0.4,0.9,0.9,0.9h0.7c0.2,0.4,0.5,0.7,0.8,1c1.1,0.9,2.8,1,4,0.2c0.4-0.3,0.8-0.6,1-1l0.5,0.5c0.3,0.3,0.6,0.4,1,0.5l15.8,2
			c0.1-0.4,0.2-0.8,0.1-1.2c-0.2-1.2-1.2-2-2.3-2.1l-7.5-0.6l-0.5-3.8c0-0.4-0.2-0.7-0.5-1l-0.5-0.5c0.4-0.2,0.7-0.6,1-1
			c0.8-1.2,0.7-2.8-0.2-4c-1.3-1.5-3.6-1.6-4.9-0.3c-1.3,1.3-1.3,3.5,0,4.8l2.5,2.5c0.1,0.1,0.2,0.3,0.2,0.5l0.2,2.5l-2.5-0.2
			C244.1,1226.8,243.9,1226.7,243.8,1226.6z M237.8,1227.5c-0.6-0.6-0.6-1.6,0-2.1c0.6-0.6,1.6-0.6,2.1,0c0.6,0.6,0.6,1.6,0,2.1
			C239.3,1228.1,238.4,1228.1,237.8,1227.5z M245.1,1220.2c-0.6-0.6-0.6-1.6,0-2.1c0.6-0.6,1.6-0.6,2.2,0s0.6,1.6,0,2.1
			S245.7,1220.8,245.1,1220.2z M249.8,1231.3l1.1,8c-0.3,0.1-0.7,0.1-1,0.1c-1.2-0.1-2.2-1.1-2.3-2.3l-0.5-6.2L249.8,1231.3z"/>
	</g>
</g>
<g>
	<g>
		<path class="st0" d="M565.7,1063.2l-2.5-2.5c-1.3-1.3-3.5-1.4-4.8,0c-0.5,0.6-0.9,1.3-0.9,2l-0.6,0.1c-0.4,0.1-0.7,0.5-0.7,0.9
			c0,0.5,0.4,0.9,0.9,0.9h0.7c0.2,0.4,0.5,0.7,0.8,1c1.1,0.9,2.8,1,4,0.2c0.4-0.3,0.8-0.6,1-1l0.5,0.5c0.3,0.3,0.6,0.4,1,0.5l15.8,2
			c0.1-0.4,0.2-0.8,0.1-1.2c-0.2-1.2-1.2-2-2.3-2.1l-7.5-0.6l-0.5-3.8c0-0.4-0.2-0.7-0.5-1l-0.5-0.5c0.4-0.2,0.7-0.6,1-1
			c0.8-1.2,0.7-2.8-0.2-4c-1.3-1.5-3.6-1.6-4.9-0.3c-1.3,1.3-1.3,3.5,0,4.8l2.5,2.5c0.1,0.1,0.2,0.3,0.2,0.5l0.2,2.5l-2.5-0.2
			C565.9,1063.4,565.8,1063.4,565.7,1063.2z M559.6,1064.1c-0.6-0.6-0.6-1.6,0-2.1c0.6-0.6,1.6-0.6,2.1,0c0.6,0.6,0.6,1.6,0,2.1
			C561.2,1064.7,560.2,1064.7,559.6,1064.1z M566.9,1056.8c-0.6-0.6-0.6-1.6,0-2.1s1.6-0.6,2.2,0c0.6,0.6,0.6,1.6,0,2.1
			S567.5,1057.4,566.9,1056.8z M571.7,1067.9l1.1,8c-0.3,0.1-0.7,0.1-1,0.1c-1.2-0.1-2.2-1.1-2.3-2.3l-0.5-6.2L571.7,1067.9z"/>
	</g>
</g>
<g>
	<g>
		<path class="st0" d="M189.4,1007.3l-2.5-2.5c-1.3-1.3-3.5-1.4-4.8,0c-0.5,0.6-0.9,1.3-0.9,2l-0.6,0.1c-0.4,0.1-0.7,0.5-0.7,0.9
			c0,0.5,0.4,0.9,0.9,0.9h0.7c0.2,0.4,0.5,0.7,0.8,1c1.1,0.9,2.8,1,4,0.2c0.4-0.3,0.8-0.6,1-1l0.5,0.5c0.3,0.3,0.6,0.4,1,0.5l15.8,2
			c0.1-0.4,0.2-0.8,0.1-1.2c-0.2-1.2-1.2-2-2.3-2.1l-7.5-0.6l-0.5-3.8c0-0.4-0.2-0.7-0.5-1l-0.5-0.5c0.4-0.2,0.7-0.6,1-1
			c0.8-1.2,0.7-2.8-0.2-4c-1.3-1.5-3.6-1.6-4.9-0.3c-1.3,1.3-1.3,3.5,0,4.8l2.5,2.5c0.1,0.1,0.2,0.3,0.2,0.5l0.2,2.5l-2.5-0.2
			C189.7,1007.5,189.5,1007.5,189.4,1007.3z M183.4,1008.2c-0.6-0.6-0.6-1.6,0-2.1c0.6-0.6,1.6-0.6,2.1,0c0.6,0.6,0.6,1.6,0,2.1
			C184.9,1008.8,183.9,1008.8,183.4,1008.2z M190.6,1000.9c-0.6-0.6-0.6-1.6,0-2.1c0.6-0.6,1.6-0.6,2.2,0c0.6,0.6,0.6,1.6,0,2.1
			S191.2,1001.5,190.6,1000.9z M195.4,1012l1.1,8c-0.3,0.1-0.7,0.1-1,0.1c-1.2-0.1-2.2-1.1-2.3-2.3l-0.5-6.2L195.4,1012z"/>
	</g>
</g>
<g>
	<g>
		<path class="st0" d="M269.2,832l-2.5-2.5c-1.3-1.3-3.5-1.4-4.8,0c-0.5,0.6-0.9,1.3-0.9,2l-0.6,0.1c-0.4,0.1-0.7,0.5-0.7,0.9
			c0,0.5,0.4,0.9,0.9,0.9h0.7c0.2,0.4,0.5,0.7,0.8,1c1.1,0.9,2.8,1,4,0.2c0.4-0.3,0.8-0.6,1-1l0.5,0.5c0.3,0.3,0.6,0.4,1,0.5l15.8,2
			c0.1-0.4,0.2-0.8,0.1-1.2c-0.2-1.2-1.2-2-2.3-2.1l-7.5-0.6l-0.5-3.8c0-0.4-0.2-0.7-0.5-1l-0.5-0.5c0.4-0.2,0.7-0.6,1-1
			c0.8-1.2,0.7-2.8-0.2-4c-1.3-1.5-3.6-1.6-4.9-0.3c-1.3,1.3-1.3,3.5,0,4.8l2.5,2.5c0.1,0.1,0.2,0.3,0.2,0.5l0.2,2.5l-2.5-0.2
			C269.4,832.2,269.3,832.1,269.2,832z M263.1,832.9c-0.6-0.6-0.6-1.6,0-2.1c0.6-0.6,1.6-0.6,2.1,0c0.6,0.6,0.6,1.6,0,2.1
			C264.7,833.5,263.7,833.5,263.1,832.9z M270.4,825.6c-0.6-0.6-0.6-1.6,0-2.1s1.6-0.6,2.2,0c0.6,0.6,0.6,1.6,0,2.1
			C272,826.2,271,826.2,270.4,825.6z M275.2,836.7l1.1,8c-0.3,0.1-0.7,0.1-1,0.1c-1.2-0.1-2.2-1.1-2.3-2.3l-0.5-6.2L275.2,836.7z"/>
	</g>
</g>
</svg>
